<svg xmlns="http://www.w3.org/2000/svg" viewBox="0 0 48 48"><defs><style>.cls-1{fill:#7c7d7d;}.cls-2{fill:#919191;}.cls-3{fill:#dad7e5;}.cls-4{fill:#edebf2;}.cls-5{fill:#9fdbf3;}.cls-6{fill:#b2e5fb;}.cls-7{fill:#ffde76;}.cls-8{fill:#9dcc6b;}.cls-9{fill:#b5e08c;}</style></defs><title>image website</title><g id="image_website" data-name="image website"><rect class="cls-1" x="1" y="5" width="46" height="8"/><path class="cls-2" d="M47,5v6H10A6,6,0,0,1,4,5H47Z"/><rect class="cls-3" x="1" y="13" width="46" height="30"/><path class="cls-4" d="M47,13V41H32A28,28,0,0,1,4,13H47Z"/><rect class="cls-5" x="5" y="17" width="24" height="18"/><path class="cls-6" d="M29,17V33H24A16,16,0,0,1,8,17H29Z"/><path class="cls-4" d="M5,10a1,1,0,0,1-.38-.08,1,1,0,0,1-.33-.21,1.15,1.15,0,0,1-.21-.33A1,1,0,0,1,4,9a1.05,1.05,0,0,1,.29-.71,1,1,0,0,1,1.42,0A1.05,1.05,0,0,1,6,9a1,1,0,0,1-1,1Z"/><path class="cls-4" d="M9,10A1,1,0,0,1,8,9a1,1,0,0,1,1.71-.71A1.05,1.05,0,0,1,10,9a.84.84,0,0,1-.08.38,1,1,0,0,1-.21.32A1,1,0,0,1,9,10Z"/><path class="cls-4" d="M13,10a1,1,0,0,1-1-1,.84.84,0,0,1,.08-.38,1.15,1.15,0,0,1,.21-.33l.15-.12.18-.09L12.8,8a1,1,0,0,1,.91.27,1,1,0,0,1,.21.33A1,1,0,0,1,13,10Z"/><path class="cls-7" d="M19,22a1,1,0,0,1-1-1,1.05,1.05,0,0,1,.29-.71l.15-.12a.76.76,0,0,1,.18-.09L18.8,20a1,1,0,0,1,.58.06,1.15,1.15,0,0,1,.33.21A1,1,0,0,1,20,21a1,1,0,0,1-.29.71,1.15,1.15,0,0,1-.33.21A1,1,0,0,1,19,22Z"/><path class="cls-2" d="M43,19H33a1,1,0,0,1,0-2H43a1,1,0,0,1,0,2Z"/><path class="cls-2" d="M43,23H33a1,1,0,0,1,0-2H43a1,1,0,0,1,0,2Z"/><path class="cls-2" d="M43,27H33a1,1,0,0,1,0-2H43a1,1,0,0,1,0,2Z"/><path class="cls-2" d="M43,31H33a1,1,0,0,1,0-2H43a1,1,0,0,1,0,2Z"/><path class="cls-2" d="M43,35H33a1,1,0,0,1,0-2H43a1,1,0,0,1,0,2Z"/><path class="cls-2" d="M43,40H5a1,1,0,0,1,0-2H43a1,1,0,0,1,0,2Z"/><polygon class="cls-8" points="21 35 5 35 5 32.33 12 23 13.25 24.67 18.13 31.17 19.5 33 21 35"/><path class="cls-9" d="M19.5,33H17.41a5.21,5.21,0,0,1-4.16-8.33h0l4.88,6.5Z"/><polygon class="cls-8" points="28.75 35 21 35 19.5 33 19.26 32.67 18.13 31.17 22 26 23.2 27.6 27.25 33 28.75 35"/><path class="cls-9" d="M27.25,33H25.84a3.35,3.35,0,0,1-2.64-5.4h0Z"/></g></svg>